# 3ds Max Wavefront OBJ Exporter v0.97b - (c)2007 guruware
# File Created: 02.07.2013 15:53:16

#
# object Box001
#

v  -0.4500 0.0000 0.4500
v  -0.4500 0.0000 -0.4500
v  0.4500 0.0000 -0.4500
v  0.4500 0.0000 0.4500
v  -0.4200 0.1000 0.4200
v  0.4200 0.1000 0.4200
v  0.4200 0.1000 -0.4200
v  -0.4200 0.1000 -0.4200
v  0.4500 0.0700 0.4500
v  -0.4500 0.0700 0.4500
v  0.4500 0.0700 -0.4500
v  -0.4500 0.0700 -0.4500
v  0.4425 0.0925 0.4425
v  -0.4425 0.0925 0.4425
v  0.4425 0.0925 -0.4425
v  -0.4425 0.0925 -0.4425
# 16 vertices

vn 0.0000 -1.0000 -0.0000
vn -0.1212 0.9852 0.1212
vn 0.1212 0.9852 0.1212
vn 0.1212 0.9852 -0.1212
vn -0.1212 0.9852 -0.1212
vn 0.0000 0.0000 1.0000
vn 0.0000 0.1429 0.9897
vn 1.0000 0.0000 -0.0000
vn 0.9897 0.1429 -0.0000
vn 0.0000 0.0000 -1.0000
vn 0.0000 0.1429 -0.9897
vn -1.0000 0.0000 -0.0000
vn -0.9897 0.1429 -0.0000
vn 0.1622 0.9733 0.1622
vn -0.1622 0.9733 0.1622
vn 0.1622 0.9733 -0.1622
vn -0.1622 0.9733 -0.1622
vn 0.0000 0.3162 0.9487
vn 0.9487 0.3162 -0.0000
vn 0.0000 0.3162 -0.9487
vn -0.9487 0.3162 -0.0000
# 21 vertex normals

vt 0.4998 0.0002 0.4375
vt 0.4998 0.4998 0.4375
vt 0.0002 0.4998 0.4375
vt 0.0002 0.0002 0.4375
vt 0.0169 0.0169 0.5625
vt 0.4831 0.0169 0.5625
vt 0.4831 0.4831 0.5625
vt 0.0169 0.4831 0.5625
vt 0.0002 0.2188 0.0005
vt 0.4998 0.2188 0.0005
vt 0.4998 0.2625 0.0005
vt 0.0002 0.2625 0.0005
vt 0.0002 0.2188 0.9995
vt 0.4998 0.2188 0.9995
vt 0.4998 0.2625 0.9995
vt 0.0002 0.2625 0.9995
vt 0.4956 0.0044 0.5531
vt 0.0044 0.0044 0.5531
vt 0.4956 0.4956 0.5531
vt 0.0044 0.4956 0.5531
vt 0.4956 0.2766 0.0088
vt 0.0044 0.2766 0.0088
vt 0.4956 0.2766 0.9912
vt 0.0044 0.2766 0.9912
# 24 texture coords

g Box001
s 1
f 1/1/1 2/2/1 3/3/1 
f 3/3/1 4/4/1 1/1/1 
f 5/5/2 6/6/3 7/7/4 
f 7/7/4 8/8/5 5/5/2 
s 2
f 1/9/6 4/10/6 9/11/7 
f 9/11/7 10/12/7 1/9/6 
s 4
f 4/13/8 3/14/8 11/15/9 
f 11/15/9 9/16/9 4/13/8 
s 2
f 3/13/10 2/14/10 12/15/11 
f 12/15/11 11/16/11 3/13/10 
s 4
f 2/9/12 1/10/12 10/11/13 
f 10/11/13 12/12/13 2/9/12 
s 1
f 13/17/14 6/6/3 5/5/2 
f 5/5/2 14/18/15 13/17/14 
f 15/19/16 7/7/4 6/6/3 
f 6/6/3 13/17/14 15/19/16 
f 16/20/17 8/8/5 7/7/4 
f 7/7/4 15/19/16 16/20/17 
f 14/18/15 5/5/2 8/8/5 
f 8/8/5 16/20/17 14/18/15 
s 2
f 9/11/7 13/21/18 14/22/18 
f 14/22/18 10/12/7 9/11/7 
s 4
f 11/15/9 15/23/19 13/24/19 
f 13/24/19 9/16/9 11/15/9 
s 2
f 12/15/11 16/23/20 15/24/20 
f 15/24/20 11/16/11 12/15/11 
s 4
f 10/11/13 14/21/21 16/22/21 
f 16/22/21 12/12/13 10/11/13 
# 28 faces

