# 3ds Max Wavefront OBJ Exporter v0.97b - (c)2007 guruware
# File Created: 02.07.2013 15:55:49

#
# object Box002
#

v  -0.0705 0.0500 -0.0002
v  -0.0002 0.0500 -0.0705
v  0.0705 0.0500 0.0002
v  0.0002 0.0500 0.0705
v  -0.0705 0.1500 -0.0002
v  0.0002 0.1500 0.0705
v  0.0705 0.1500 0.0002
v  -0.0002 0.1500 -0.0705
v  -0.3887 0.0500 0.3180
v  -0.3180 0.0500 0.3887
v  -0.3180 0.1500 0.3887
v  -0.3887 0.1500 0.3180
v  0.3184 0.0500 0.3887
v  0.3887 0.0500 0.3184
v  0.3887 0.1500 0.3184
v  0.3184 0.1500 0.3887
v  0.3887 0.0500 -0.3180
v  0.3180 0.0500 -0.3887
v  0.3180 0.1500 -0.3887
v  0.3887 0.1500 -0.3180
v  -0.3184 0.0500 -0.3887
v  -0.3887 0.0500 -0.3184
v  -0.3887 0.1500 -0.3184
v  -0.3184 0.1500 -0.3887
# 24 vertices

vn 0.0000 -1.0000 -0.0000
vn 0.0000 1.0000 -0.0000
vn -0.7071 0.0000 0.7071
vn 0.7071 0.0000 0.7071
vn 0.7071 0.0000 -0.7071
vn -0.7071 0.0000 -0.7071
# 6 vertex normals

vt 0.8715 0.8722 0.5424
vt 0.8715 1.1278 0.5424
vt 1.1285 1.1278 0.5424
vt 1.1285 0.8722 0.5424
vt 1.1285 0.8722 0.4576
vt 0.8715 0.8722 0.4576
vt 0.8715 1.1278 0.4576
vt 1.1285 1.1278 0.4576
vt 0.8715 1.0848 -0.1422
vt 1.1285 1.0848 -0.1422
vt 1.1285 0.9152 -0.1422
vt 0.8715 0.9152 -0.1422
vt 0.8722 1.0848 1.1425
vt 1.1278 1.0848 1.1425
vt 1.1278 0.9152 1.1425
vt 0.8722 0.9152 1.1425
vt 0.8715 1.0848 1.1422
vt 1.1285 1.0848 1.1422
vt 1.1285 0.9152 1.1422
vt 0.8715 0.9152 1.1422
vt 0.8722 1.0848 -0.1425
vt 1.1278 1.0848 -0.1425
vt 1.1278 0.9152 -0.1425
vt 0.8722 0.9152 -0.1425
vt 1.1285 -0.2843 0.5424
vt 0.8715 -0.2843 0.5424
vt 0.8722 1.0848 0.5642
vt 0.8722 0.9152 0.5642
vt -0.2843 0.9152 0.5642
vt -0.2843 1.0848 0.5642
vt 1.1285 -0.2843 0.4576
vt 0.8715 -0.2843 0.4576
vt 1.1278 0.9152 0.4358
vt 1.1278 1.0848 0.4358
vt 2.2843 1.0848 0.4358
vt 2.2843 0.9152 0.4358
vt 2.2850 1.1278 0.5424
vt 2.2850 0.8722 0.5424
vt 0.8715 1.0848 0.5639
vt 0.8715 0.9152 0.5639
vt -0.2850 0.9152 0.5639
vt -0.2850 1.0848 0.5639
vt -0.2850 0.8722 0.4576
vt -0.2850 1.1278 0.4576
vt 1.1285 0.9152 0.4361
vt 1.1285 1.0848 0.4361
vt 2.2850 1.0848 0.4361
vt 2.2850 0.9152 0.4361
vt 0.8715 2.2843 0.5424
vt 1.1285 2.2843 0.5424
vt 0.8722 1.0848 0.4358
vt 0.8722 0.9152 0.4358
vt -0.2843 0.9152 0.4358
vt -0.2843 1.0848 0.4358
vt 0.8715 2.2843 0.4576
vt 1.1285 2.2843 0.4576
vt 1.1278 0.9152 0.5642
vt 1.1278 1.0848 0.5642
vt 2.2843 1.0848 0.5642
vt 2.2843 0.9152 0.5642
vt -0.2850 0.8722 0.5424
vt -0.2850 1.1278 0.5424
vt 0.8715 1.0848 0.4361
vt 0.8715 0.9152 0.4361
vt -0.2850 0.9152 0.4361
vt -0.2850 1.0848 0.4361
vt 2.2850 1.1278 0.4576
vt 2.2850 0.8722 0.4576
vt 1.1285 0.9152 0.5639
vt 1.1285 1.0848 0.5639
vt 2.2850 1.0848 0.5639
vt 2.2850 0.9152 0.5639
# 72 texture coords

g Box002
s 1
f 1/1/1 2/2/1 3/3/1 
f 3/3/1 4/4/1 1/1/1 
f 5/5/2 6/6/2 7/7/2 
f 7/7/2 8/8/2 5/5/2 
s 2
f 9/9/3 10/10/3 11/11/3 
f 11/11/3 12/12/3 9/9/3 
f 13/13/4 14/14/4 15/15/4 
f 15/15/4 16/16/4 13/13/4 
f 17/17/5 18/18/5 19/19/5 
f 19/19/5 20/20/5 17/17/5 
f 21/21/6 22/22/6 23/23/6 
f 23/23/6 24/24/6 21/21/6 
s 1
f 1/1/1 4/4/1 10/25/1 
f 10/25/1 9/26/1 1/1/1 
s 4
f 4/27/4 6/28/4 11/29/4 
f 11/29/4 10/30/4 4/27/4 
s 1
f 6/6/2 5/5/2 12/31/2 
f 12/31/2 11/32/2 6/6/2 
s 4
f 5/33/6 1/34/6 9/35/6 
f 9/35/6 12/36/6 5/33/6 
s 1
f 4/4/1 3/3/1 14/37/1 
f 14/37/1 13/38/1 4/4/1 
s 4
f 3/39/5 7/40/5 15/41/5 
f 15/41/5 14/42/5 3/39/5 
s 1
f 7/7/2 6/6/2 16/43/2 
f 16/43/2 15/44/2 7/7/2 
s 8
f 6/45/3 4/46/3 13/47/3 
f 13/47/3 16/48/3 6/45/3 
s 1
f 3/3/1 2/2/1 18/49/1 
f 18/49/1 17/50/1 3/3/1 
s 4
f 2/51/6 8/52/6 19/53/6 
f 19/53/6 18/54/6 2/51/6 
s 1
f 8/8/2 7/7/2 20/55/2 
f 20/55/2 19/56/2 8/8/2 
s 8
f 7/57/4 3/58/4 17/59/4 
f 17/59/4 20/60/4 7/57/4 
s 1
f 2/2/1 1/1/1 22/61/1 
f 22/61/1 21/62/1 2/2/1 
s 8
f 1/63/3 5/64/3 23/65/3 
f 23/65/3 22/66/3 1/63/3 
s 1
f 5/5/2 8/8/2 24/67/2 
f 24/67/2 23/68/2 5/5/2 
s 8
f 8/69/5 2/70/5 21/71/5 
f 21/71/5 24/72/5 8/69/5 
# 44 faces

