# 3ds Max Wavefront OBJ Exporter v0.97b - (c)2007 guruware
# File Created: 02.07.2013 15:58:12

#
# object Tube001
#

v  0.0000 0.0500 -0.4000
v  0.0780 0.1500 -0.3923
v  0.0780 0.0500 -0.3923
v  0.0000 0.1500 -0.4000
v  0.0683 0.1500 -0.3433
v  0.0000 0.1500 -0.3500
v  0.0683 0.0500 -0.3433
v  0.0000 0.0500 -0.3500
v  0.1531 0.1500 -0.3696
v  0.1531 0.0500 -0.3696
v  0.1339 0.1500 -0.3234
v  0.1339 0.0500 -0.3234
v  0.2222 0.1500 -0.3326
v  0.2222 0.0500 -0.3326
v  0.1944 0.1500 -0.2910
v  0.1944 0.0500 -0.2910
v  0.2828 0.1500 -0.2828
v  0.2828 0.0500 -0.2828
v  0.2475 0.1500 -0.2475
v  0.2475 0.0500 -0.2475
v  0.3326 0.1500 -0.2222
v  0.3326 0.0500 -0.2222
v  0.2910 0.1500 -0.1944
v  0.2910 0.0500 -0.1944
v  0.3696 0.1500 -0.1531
v  0.3696 0.0500 -0.1531
v  0.3234 0.1500 -0.1339
v  0.3234 0.0500 -0.1339
v  0.3923 0.1500 -0.0780
v  0.3923 0.0500 -0.0780
v  0.3433 0.1500 -0.0683
v  0.3433 0.0500 -0.0683
v  0.4000 0.1500 -0.0000
v  0.4000 0.0500 -0.0000
v  0.3500 0.1500 -0.0000
v  0.3500 0.0500 -0.0000
v  0.3923 0.1500 0.0780
v  0.3923 0.0500 0.0780
v  0.3433 0.1500 0.0683
v  0.3433 0.0500 0.0683
v  0.3696 0.1500 0.1531
v  0.3696 0.0500 0.1531
v  0.3234 0.1500 0.1339
v  0.3234 0.0500 0.1339
v  0.3326 0.1500 0.2222
v  0.3326 0.0500 0.2222
v  0.2910 0.1500 0.1944
v  0.2910 0.0500 0.1944
v  0.2828 0.1500 0.2828
v  0.2828 0.0500 0.2828
v  0.2475 0.1500 0.2475
v  0.2475 0.0500 0.2475
v  0.2222 0.1500 0.3326
v  0.2222 0.0500 0.3326
v  0.1944 0.1500 0.2910
v  0.1944 0.0500 0.2910
v  0.1531 0.1500 0.3696
v  0.1531 0.0500 0.3696
v  0.1339 0.1500 0.3234
v  0.1339 0.0500 0.3234
v  0.0780 0.1500 0.3923
v  0.0780 0.0500 0.3923
v  0.0683 0.1500 0.3433
v  0.0683 0.0500 0.3433
v  0.0000 0.1500 0.4000
v  0.0000 0.0500 0.4000
v  0.0000 0.1500 0.3500
v  0.0000 0.0500 0.3500
v  -0.0780 0.1500 0.3923
v  -0.0780 0.0500 0.3923
v  -0.0683 0.1500 0.3433
v  -0.0683 0.0500 0.3433
v  -0.1531 0.1500 0.3696
v  -0.1531 0.0500 0.3696
v  -0.1339 0.1500 0.3234
v  -0.1339 0.0500 0.3234
v  -0.2222 0.1500 0.3326
v  -0.2222 0.0500 0.3326
v  -0.1944 0.1500 0.2910
v  -0.1944 0.0500 0.2910
v  -0.2828 0.1500 0.2828
v  -0.2828 0.0500 0.2828
v  -0.2475 0.1500 0.2475
v  -0.2475 0.0500 0.2475
v  -0.3326 0.1500 0.2222
v  -0.3326 0.0500 0.2222
v  -0.2910 0.1500 0.1944
v  -0.2910 0.0500 0.1944
v  -0.3696 0.1500 0.1531
v  -0.3696 0.0500 0.1531
v  -0.3234 0.1500 0.1339
v  -0.3234 0.0500 0.1339
v  -0.3923 0.1500 0.0780
v  -0.3923 0.0500 0.0780
v  -0.3433 0.1500 0.0683
v  -0.3433 0.0500 0.0683
v  -0.4000 0.1500 -0.0000
v  -0.4000 0.0500 -0.0000
v  -0.3500 0.1500 -0.0000
v  -0.3500 0.0500 -0.0000
v  -0.3923 0.1500 -0.0780
v  -0.3923 0.0500 -0.0780
v  -0.3433 0.1500 -0.0683
v  -0.3433 0.0500 -0.0683
v  -0.3696 0.1500 -0.1531
v  -0.3696 0.0500 -0.1531
v  -0.3234 0.1500 -0.1339
v  -0.3234 0.0500 -0.1339
v  -0.3326 0.1500 -0.2222
v  -0.3326 0.0500 -0.2222
v  -0.2910 0.1500 -0.1944
v  -0.2910 0.0500 -0.1944
v  -0.2828 0.1500 -0.2828
v  -0.2828 0.0500 -0.2828
v  -0.2475 0.1500 -0.2475
v  -0.2475 0.0500 -0.2475
v  -0.2222 0.1500 -0.3326
v  -0.2222 0.0500 -0.3326
v  -0.1944 0.1500 -0.2910
v  -0.1944 0.0500 -0.2910
v  -0.1531 0.1500 -0.3696
v  -0.1531 0.0500 -0.3696
v  -0.1339 0.1500 -0.3234
v  -0.1339 0.0500 -0.3234
v  -0.0780 0.1500 -0.3923
v  -0.0780 0.0500 -0.3923
v  -0.0683 0.1500 -0.3433
v  -0.0683 0.0500 -0.3433
# 128 vertices

vn 0.0000 0.0000 -1.0000
vn 0.1951 0.0000 -0.9808
vn 0.0000 1.0000 -0.0000
vn 0.0000 0.0000 1.0000
vn -0.1951 0.0000 0.9808
vn 0.0000 -1.0000 -0.0000
vn 0.3827 0.0000 -0.9239
vn -0.3827 0.0000 0.9239
vn 0.5556 0.0000 -0.8315
vn -0.5556 0.0000 0.8315
vn 0.7071 0.0000 -0.7071
vn -0.7071 0.0000 0.7071
vn 0.8315 0.0000 -0.5556
vn -0.8315 0.0000 0.5556
vn 0.9239 0.0000 -0.3827
vn -0.9239 0.0000 0.3827
vn 0.9808 0.0000 -0.1951
vn -0.9808 0.0000 0.1951
vn 1.0000 0.0000 -0.0000
vn -1.0000 0.0000 -0.0000
vn 0.9808 0.0000 0.1951
vn -0.9808 0.0000 -0.1951
vn 0.9239 0.0000 0.3827
vn -0.9239 0.0000 -0.3827
vn 0.8315 0.0000 0.5556
vn -0.8315 0.0000 -0.5556
vn 0.7071 0.0000 0.7071
vn -0.7071 0.0000 -0.7071
vn 0.5556 0.0000 0.8315
vn -0.5556 0.0000 -0.8315
vn 0.3827 0.0000 0.9239
vn -0.3827 0.0000 -0.9239
vn 0.1951 0.0000 0.9808
vn -0.1951 0.0000 -0.9808
# 34 vertex normals

vt 1.0000 1.2000 0.9995
vt 0.8052 0.8000 0.9899
vt 0.8052 1.2000 0.9899
vt 1.0000 0.8000 0.9995
vt 1.0000 1.9990 0.4000
vt 0.8294 1.8574 0.4000
vt 0.8052 1.9798 0.4000
vt 1.0000 1.8741 0.4000
vt 1.0000 0.8000 0.9371
vt 1.1706 1.2000 0.9287
vt 1.1706 0.8000 0.9287
vt 1.0000 1.2000 0.9371
vt 1.0000 1.8741 0.6000
vt 1.1948 1.9798 0.6000
vt 1.1706 1.8574 0.6000
vt 1.0000 1.9990 0.6000
vt 0.6176 0.8000 0.9615
vt 0.6176 1.2000 0.9615
vt 0.6656 1.8077 0.4000
vt 0.6176 1.9231 0.4000
vt 1.3344 1.2000 0.9038
vt 1.3344 0.8000 0.9038
vt 1.3824 1.9231 0.6000
vt 1.3344 1.8077 0.6000
vt 0.4451 0.8000 0.9153
vt 0.4451 1.2000 0.9153
vt 0.5145 1.7268 0.4000
vt 0.4451 1.8307 0.4000
vt 1.4855 1.2000 0.8634
vt 1.4855 0.8000 0.8634
vt 1.5549 1.8307 0.6000
vt 1.4855 1.7268 0.6000
vt 0.2937 0.8000 0.8531
vt 0.2937 1.2000 0.8531
vt 0.3819 1.6181 0.4000
vt 0.2937 1.7063 0.4000
vt 1.6181 1.2000 0.8091
vt 1.6181 0.8000 0.8091
vt 1.7063 1.7063 0.6000
vt 1.6181 1.6181 0.6000
vt 1.7063 1.2000 0.8531
vt 1.5549 0.8000 0.9153
vt 1.5549 1.2000 0.9153
vt 1.7063 0.8000 0.8531
vt 0.2732 1.4855 0.4000
vt 0.1693 1.5549 0.4000
vt 0.3819 0.8000 0.8091
vt 0.5145 1.2000 0.8634
vt 0.5145 0.8000 0.8634
vt 0.3819 1.2000 0.8091
vt 1.8307 1.5549 0.6000
vt 1.7268 1.4855 0.6000
vt 1.3824 0.8000 0.9615
vt 1.3824 1.2000 0.9615
vt 0.1923 1.3344 0.4000
vt 0.0769 1.3824 0.4000
vt 0.6656 1.2000 0.9038
vt 0.6656 0.8000 0.9038
vt 1.9231 1.3824 0.6000
vt 1.8077 1.3344 0.6000
vt 1.1948 0.8000 0.9899
vt 1.1948 1.2000 0.9899
vt 0.1426 1.1706 0.4000
vt 0.0202 1.1948 0.4000
vt 0.8294 1.2000 0.9287
vt 0.8294 0.8000 0.9287
vt 1.9798 1.1948 0.6000
vt 1.8574 1.1706 0.6000
vt 0.1259 1.0000 0.4000
vt 0.0010 1.0000 0.4000
vt 1.9990 1.0000 0.6000
vt 1.8741 1.0000 0.6000
vt 0.1426 0.8294 0.4000
vt 0.0202 0.8052 0.4000
vt 1.9798 0.8052 0.6000
vt 1.8574 0.8294 0.6000
vt 0.1923 0.6656 0.4000
vt 0.0769 0.6176 0.4000
vt 1.9231 0.6176 0.6000
vt 1.8077 0.6656 0.6000
vt 0.2732 0.5145 0.4000
vt 0.1693 0.4451 0.4000
vt 1.8307 0.4451 0.6000
vt 1.7268 0.5145 0.6000
vt 0.3819 0.3819 0.4000
vt 0.2937 0.2937 0.4000
vt 1.7063 0.2937 0.6000
vt 1.6181 0.3819 0.6000
vt 1.7063 1.2000 0.1469
vt 1.5549 0.8000 0.0847
vt 1.5549 1.2000 0.0847
vt 1.7063 0.8000 0.1469
vt 0.5145 0.2732 0.4000
vt 0.4451 0.1693 0.4000
vt 0.3819 0.8000 0.1909
vt 0.5145 1.2000 0.1366
vt 0.5145 0.8000 0.1366
vt 0.3819 1.2000 0.1909
vt 1.5549 0.1693 0.6000
vt 1.4855 0.2732 0.6000
vt 1.3824 0.8000 0.0385
vt 1.3824 1.2000 0.0385
vt 0.6656 0.1923 0.4000
vt 0.6176 0.0769 0.4000
vt 0.6656 1.2000 0.0962
vt 0.6656 0.8000 0.0962
vt 1.3824 0.0769 0.6000
vt 1.3344 0.1923 0.6000
vt 1.1948 0.8000 0.0101
vt 1.1948 1.2000 0.0101
vt 0.8294 0.1426 0.4000
vt 0.8052 0.0202 0.4000
vt 0.8294 1.2000 0.0713
vt 0.8294 0.8000 0.0713
vt 1.1948 0.0202 0.6000
vt 1.1706 0.1426 0.6000
vt 1.0000 0.8000 0.0005
vt 1.0000 1.2000 0.0005
vt 1.0000 0.1259 0.4000
vt 1.0000 0.0010 0.4000
vt 1.0000 1.2000 0.0629
vt 1.0000 0.8000 0.0629
vt 1.0000 0.0010 0.6000
vt 1.0000 0.1259 0.6000
vt 0.8052 0.8000 0.0101
vt 0.8052 1.2000 0.0101
vt 1.1706 0.1426 0.4000
vt 1.1948 0.0202 0.4000
vt 1.1706 1.2000 0.0713
vt 1.1706 0.8000 0.0713
vt 0.8052 0.0202 0.6000
vt 0.8294 0.1426 0.6000
vt 0.6176 0.8000 0.0385
vt 0.6176 1.2000 0.0385
vt 1.3344 0.1923 0.4000
vt 1.3824 0.0769 0.4000
vt 1.3344 1.2000 0.0962
vt 1.3344 0.8000 0.0962
vt 0.6176 0.0769 0.6000
vt 0.6656 0.1923 0.6000
vt 0.4451 0.8000 0.0847
vt 0.4451 1.2000 0.0847
vt 1.4855 0.2732 0.4000
vt 1.5549 0.1693 0.4000
vt 1.4855 1.2000 0.1366
vt 1.4855 0.8000 0.1366
vt 0.4451 0.1693 0.6000
vt 0.5145 0.2732 0.6000
vt 0.2937 0.8000 0.1469
vt 0.2937 1.2000 0.1469
vt 1.6181 0.3819 0.4000
vt 1.7063 0.2937 0.4000
vt 1.6181 1.2000 0.1909
vt 1.6181 0.8000 0.1909
vt 0.2937 0.2937 0.6000
vt 0.3819 0.3819 0.6000
vt 1.7268 0.5145 0.4000
vt 1.8307 0.4451 0.4000
vt 0.1693 0.4451 0.6000
vt 0.2732 0.5145 0.6000
vt 1.8077 0.6656 0.4000
vt 1.9231 0.6176 0.4000
vt 0.0769 0.6176 0.6000
vt 0.1923 0.6656 0.6000
vt 1.8574 0.8294 0.4000
vt 1.9798 0.8052 0.4000
vt 0.0202 0.8052 0.6000
vt 0.1426 0.8294 0.6000
vt 1.8741 1.0000 0.4000
vt 1.9990 1.0000 0.4000
vt 0.0010 1.0000 0.6000
vt 0.1259 1.0000 0.6000
vt 1.8574 1.1706 0.4000
vt 1.9798 1.1948 0.4000
vt 0.0202 1.1948 0.6000
vt 0.1426 1.1706 0.6000
vt 1.8077 1.3344 0.4000
vt 1.9231 1.3824 0.4000
vt 0.0769 1.3824 0.6000
vt 0.1923 1.3344 0.6000
vt 1.7268 1.4855 0.4000
vt 1.8307 1.5549 0.4000
vt 0.1693 1.5549 0.6000
vt 0.2732 1.4855 0.6000
vt 1.6181 1.6181 0.4000
vt 1.7063 1.7063 0.4000
vt 0.2937 1.7063 0.6000
vt 0.3819 1.6181 0.6000
vt 1.4855 1.7268 0.4000
vt 1.5549 1.8307 0.4000
vt 0.4451 1.8307 0.6000
vt 0.5145 1.7268 0.6000
vt 1.3344 1.8077 0.4000
vt 1.3824 1.9231 0.4000
vt 0.6176 1.9231 0.6000
vt 0.6656 1.8077 0.6000
vt 1.1706 1.8574 0.4000
vt 1.1948 1.9798 0.4000
vt 0.8052 1.9798 0.6000
vt 0.8294 1.8574 0.6000
# 200 texture coords

g Tube001
s 2
f 1/1/1 2/2/2 3/3/2 
f 1/1/1 4/4/1 2/2/2 
s 4
f 4/5/3 5/6/3 2/7/3 
f 4/5/3 6/8/3 5/6/3 
s 2
f 6/9/4 7/10/5 5/11/5 
f 6/9/4 8/12/4 7/10/5 
s 4
f 8/13/6 3/14/6 7/15/6 
f 8/13/6 1/16/6 3/14/6 
s 2
f 3/3/2 9/17/7 10/18/7 
f 3/3/2 2/2/2 9/17/7 
s 4
f 2/7/3 11/19/3 9/20/3 
f 2/7/3 5/6/3 11/19/3 
s 2
f 5/11/5 12/21/8 11/22/8 
f 5/11/5 7/10/5 12/21/8 
s 4
f 7/15/6 10/23/6 12/24/6 
f 7/15/6 3/14/6 10/23/6 
s 2
f 10/18/7 13/25/9 14/26/9 
f 10/18/7 9/17/7 13/25/9 
s 4
f 9/20/3 15/27/3 13/28/3 
f 9/20/3 11/19/3 15/27/3 
s 2
f 11/22/8 16/29/10 15/30/10 
f 11/22/8 12/21/8 16/29/10 
s 4
f 12/24/6 14/31/6 16/32/6 
f 12/24/6 10/23/6 14/31/6 
s 2
f 14/26/9 17/33/11 18/34/11 
f 14/26/9 13/25/9 17/33/11 
s 4
f 13/28/3 19/35/3 17/36/3 
f 13/28/3 15/27/3 19/35/3 
s 2
f 15/30/10 20/37/12 19/38/12 
f 15/30/10 16/29/10 20/37/12 
s 4
f 16/32/6 18/39/6 20/40/6 
f 16/32/6 14/31/6 18/39/6 
s 2
f 18/41/11 21/42/13 22/43/13 
f 18/41/11 17/44/11 21/42/13 
s 4
f 17/36/3 23/45/3 21/46/3 
f 17/36/3 19/35/3 23/45/3 
s 2
f 19/47/12 24/48/14 23/49/14 
f 19/47/12 20/50/12 24/48/14 
s 4
f 20/40/6 22/51/6 24/52/6 
f 20/40/6 18/39/6 22/51/6 
s 2
f 22/43/13 25/53/15 26/54/15 
f 22/43/13 21/42/13 25/53/15 
s 4
f 21/46/3 27/55/3 25/56/3 
f 21/46/3 23/45/3 27/55/3 
s 2
f 23/49/14 28/57/16 27/58/16 
f 23/49/14 24/48/14 28/57/16 
s 4
f 24/52/6 26/59/6 28/60/6 
f 24/52/6 22/51/6 26/59/6 
s 2
f 26/54/15 29/61/17 30/62/17 
f 26/54/15 25/53/15 29/61/17 
s 4
f 25/56/3 31/63/3 29/64/3 
f 25/56/3 27/55/3 31/63/3 
s 2
f 27/58/16 32/65/18 31/66/18 
f 27/58/16 28/57/16 32/65/18 
s 4
f 28/60/6 30/67/6 32/68/6 
f 28/60/6 26/59/6 30/67/6 
s 2
f 30/62/17 33/4/19 34/1/19 
f 30/62/17 29/61/17 33/4/19 
s 4
f 29/64/3 35/69/3 33/70/3 
f 29/64/3 31/63/3 35/69/3 
s 2
f 31/66/18 36/12/20 35/9/20 
f 31/66/18 32/65/18 36/12/20 
s 4
f 32/68/6 34/71/6 36/72/6 
f 32/68/6 30/67/6 34/71/6 
s 2
f 34/1/19 37/2/21 38/3/21 
f 34/1/19 33/4/19 37/2/21 
s 4
f 33/70/3 39/73/3 37/74/3 
f 33/70/3 35/69/3 39/73/3 
s 2
f 35/9/20 40/10/22 39/11/22 
f 35/9/20 36/12/20 40/10/22 
s 4
f 36/72/6 38/75/6 40/76/6 
f 36/72/6 34/71/6 38/75/6 
s 2
f 38/3/21 41/17/23 42/18/23 
f 38/3/21 37/2/21 41/17/23 
s 4
f 37/74/3 43/77/3 41/78/3 
f 37/74/3 39/73/3 43/77/3 
s 2
f 39/11/22 44/21/24 43/22/24 
f 39/11/22 40/10/22 44/21/24 
s 4
f 40/76/6 42/79/6 44/80/6 
f 40/76/6 38/75/6 42/79/6 
s 2
f 42/18/23 45/25/25 46/26/25 
f 42/18/23 41/17/23 45/25/25 
s 4
f 41/78/3 47/81/3 45/82/3 
f 41/78/3 43/77/3 47/81/3 
s 2
f 43/22/24 48/29/26 47/30/26 
f 43/22/24 44/21/24 48/29/26 
s 4
f 44/80/6 46/83/6 48/84/6 
f 44/80/6 42/79/6 46/83/6 
s 2
f 46/26/25 49/33/27 50/34/27 
f 46/26/25 45/25/25 49/33/27 
s 4
f 45/82/3 51/85/3 49/86/3 
f 45/82/3 47/81/3 51/85/3 
s 2
f 47/30/26 52/37/28 51/38/28 
f 47/30/26 48/29/26 52/37/28 
s 4
f 48/84/6 50/87/6 52/88/6 
f 48/84/6 46/83/6 50/87/6 
s 2
f 50/89/27 53/90/29 54/91/29 
f 50/89/27 49/92/27 53/90/29 
s 4
f 49/86/3 55/93/3 53/94/3 
f 49/86/3 51/85/3 55/93/3 
s 2
f 51/95/28 56/96/30 55/97/30 
f 51/95/28 52/98/28 56/96/30 
s 4
f 52/88/6 54/99/6 56/100/6 
f 52/88/6 50/87/6 54/99/6 
s 2
f 54/91/29 57/101/31 58/102/31 
f 54/91/29 53/90/29 57/101/31 
s 4
f 53/94/3 59/103/3 57/104/3 
f 53/94/3 55/93/3 59/103/3 
s 2
f 55/97/30 60/105/32 59/106/32 
f 55/97/30 56/96/30 60/105/32 
s 4
f 56/100/6 58/107/6 60/108/6 
f 56/100/6 54/99/6 58/107/6 
s 2
f 58/102/31 61/109/33 62/110/33 
f 58/102/31 57/101/31 61/109/33 
s 4
f 57/104/3 63/111/3 61/112/3 
f 57/104/3 59/103/3 63/111/3 
s 2
f 59/106/32 64/113/34 63/114/34 
f 59/106/32 60/105/32 64/113/34 
s 4
f 60/108/6 62/115/6 64/116/6 
f 60/108/6 58/107/6 62/115/6 
s 2
f 62/110/33 65/117/4 66/118/4 
f 62/110/33 61/109/33 65/117/4 
s 4
f 61/112/3 67/119/3 65/120/3 
f 61/112/3 63/111/3 67/119/3 
s 2
f 63/114/34 68/121/1 67/122/1 
f 63/114/34 64/113/34 68/121/1 
s 4
f 64/116/6 66/123/6 68/124/6 
f 64/116/6 62/115/6 66/123/6 
s 2
f 66/118/4 69/125/5 70/126/5 
f 66/118/4 65/117/4 69/125/5 
s 4
f 65/120/3 71/127/3 69/128/3 
f 65/120/3 67/119/3 71/127/3 
s 2
f 67/122/1 72/129/2 71/130/2 
f 67/122/1 68/121/1 72/129/2 
s 4
f 68/124/6 70/131/6 72/132/6 
f 68/124/6 66/123/6 70/131/6 
s 2
f 70/126/5 73/133/8 74/134/8 
f 70/126/5 69/125/5 73/133/8 
s 4
f 69/128/3 75/135/3 73/136/3 
f 69/128/3 71/127/3 75/135/3 
s 2
f 71/130/2 76/137/7 75/138/7 
f 71/130/2 72/129/2 76/137/7 
s 4
f 72/132/6 74/139/6 76/140/6 
f 72/132/6 70/131/6 74/139/6 
s 2
f 74/134/8 77/141/10 78/142/10 
f 74/134/8 73/133/8 77/141/10 
s 4
f 73/136/3 79/143/3 77/144/3 
f 73/136/3 75/135/3 79/143/3 
s 2
f 75/138/7 80/145/9 79/146/9 
f 75/138/7 76/137/7 80/145/9 
s 4
f 76/140/6 78/147/6 80/148/6 
f 76/140/6 74/139/6 78/147/6 
s 2
f 78/142/10 81/149/12 82/150/12 
f 78/142/10 77/141/10 81/149/12 
s 4
f 77/144/3 83/151/3 81/152/3 
f 77/144/3 79/143/3 83/151/3 
s 2
f 79/146/9 84/153/11 83/154/11 
f 79/146/9 80/145/9 84/153/11 
s 4
f 80/148/6 82/155/6 84/156/6 
f 80/148/6 78/147/6 82/155/6 
s 2
f 82/89/12 85/90/14 86/91/14 
f 82/89/12 81/92/12 85/90/14 
s 4
f 81/152/3 87/157/3 85/158/3 
f 81/152/3 83/151/3 87/157/3 
s 2
f 83/95/11 88/96/13 87/97/13 
f 83/95/11 84/98/11 88/96/13 
s 4
f 84/156/6 86/159/6 88/160/6 
f 84/156/6 82/155/6 86/159/6 
s 2
f 86/91/14 89/101/16 90/102/16 
f 86/91/14 85/90/14 89/101/16 
s 4
f 85/158/3 91/161/3 89/162/3 
f 85/158/3 87/157/3 91/161/3 
s 2
f 87/97/13 92/105/15 91/106/15 
f 87/97/13 88/96/13 92/105/15 
s 4
f 88/160/6 90/163/6 92/164/6 
f 88/160/6 86/159/6 90/163/6 
s 2
f 90/102/16 93/109/18 94/110/18 
f 90/102/16 89/101/16 93/109/18 
s 4
f 89/162/3 95/165/3 93/166/3 
f 89/162/3 91/161/3 95/165/3 
s 2
f 91/106/15 96/113/17 95/114/17 
f 91/106/15 92/105/15 96/113/17 
s 4
f 92/164/6 94/167/6 96/168/6 
f 92/164/6 90/163/6 94/167/6 
s 2
f 94/110/18 97/117/20 98/118/20 
f 94/110/18 93/109/18 97/117/20 
s 4
f 93/166/3 99/169/3 97/170/3 
f 93/166/3 95/165/3 99/169/3 
s 2
f 95/114/17 100/121/19 99/122/19 
f 95/114/17 96/113/17 100/121/19 
s 4
f 96/168/6 98/171/6 100/172/6 
f 96/168/6 94/167/6 98/171/6 
s 2
f 98/118/20 101/125/22 102/126/22 
f 98/118/20 97/117/20 101/125/22 
s 4
f 97/170/3 103/173/3 101/174/3 
f 97/170/3 99/169/3 103/173/3 
s 2
f 99/122/19 104/129/21 103/130/21 
f 99/122/19 100/121/19 104/129/21 
s 4
f 100/172/6 102/175/6 104/176/6 
f 100/172/6 98/171/6 102/175/6 
s 2
f 102/126/22 105/133/24 106/134/24 
f 102/126/22 101/125/22 105/133/24 
s 4
f 101/174/3 107/177/3 105/178/3 
f 101/174/3 103/173/3 107/177/3 
s 2
f 103/130/21 108/137/23 107/138/23 
f 103/130/21 104/129/21 108/137/23 
s 4
f 104/176/6 106/179/6 108/180/6 
f 104/176/6 102/175/6 106/179/6 
s 2
f 106/134/24 109/141/26 110/142/26 
f 106/134/24 105/133/24 109/141/26 
s 4
f 105/178/3 111/181/3 109/182/3 
f 105/178/3 107/177/3 111/181/3 
s 2
f 107/138/23 112/145/25 111/146/25 
f 107/138/23 108/137/23 112/145/25 
s 4
f 108/180/6 110/183/6 112/184/6 
f 108/180/6 106/179/6 110/183/6 
s 2
f 110/142/26 113/149/28 114/150/28 
f 110/142/26 109/141/26 113/149/28 
s 4
f 109/182/3 115/185/3 113/186/3 
f 109/182/3 111/181/3 115/185/3 
s 2
f 111/146/25 116/153/27 115/154/27 
f 111/146/25 112/145/25 116/153/27 
s 4
f 112/184/6 114/187/6 116/188/6 
f 112/184/6 110/183/6 114/187/6 
s 2
f 114/41/28 117/42/30 118/43/30 
f 114/41/28 113/44/28 117/42/30 
s 4
f 113/186/3 119/189/3 117/190/3 
f 113/186/3 115/185/3 119/189/3 
s 2
f 115/47/27 120/48/29 119/49/29 
f 115/47/27 116/50/27 120/48/29 
s 4
f 116/188/6 118/191/6 120/192/6 
f 116/188/6 114/187/6 118/191/6 
s 2
f 118/43/30 121/53/32 122/54/32 
f 118/43/30 117/42/30 121/53/32 
s 4
f 117/190/3 123/193/3 121/194/3 
f 117/190/3 119/189/3 123/193/3 
s 2
f 119/49/29 124/57/31 123/58/31 
f 119/49/29 120/48/29 124/57/31 
s 4
f 120/192/6 122/195/6 124/196/6 
f 120/192/6 118/191/6 122/195/6 
s 2
f 122/54/32 125/61/34 126/62/34 
f 122/54/32 121/53/32 125/61/34 
s 4
f 121/194/3 127/197/3 125/198/3 
f 121/194/3 123/193/3 127/197/3 
s 2
f 123/58/31 128/65/33 127/66/33 
f 123/58/31 124/57/31 128/65/33 
s 4
f 124/196/6 126/199/6 128/200/6 
f 124/196/6 122/195/6 126/199/6 
s 2
f 126/62/34 4/4/1 1/1/1 
f 126/62/34 125/61/34 4/4/1 
s 4
f 125/198/3 6/8/3 4/5/3 
f 125/198/3 127/197/3 6/8/3 
s 2
f 127/66/33 8/12/4 6/9/4 
f 127/66/33 128/65/33 8/12/4 
s 4
f 128/200/6 1/16/6 8/13/6 
f 128/200/6 126/199/6 1/16/6 
# 256 faces

